<svg width="445" height="125" viewBox="0 0 445 125" fill="none" xmlns="http://www.w3.org/2000/svg">
<rect x="1" y="1" width="443" height="123" rx="19" fill="url(#paint0_linear_28_8)" stroke="#363E49" stroke-width="2"/>
<g clip-path="url(#clip0_28_8)">
<path d="M138.351 48.2834C137.415 47.9632 136.471 47.6659 135.52 47.3914C135.678 46.7511 135.825 46.1082 135.96 45.4627C138.103 35.095 136.702 26.7398 131.912 23.9878C127.321 21.3501 119.814 24.1021 112.231 30.6773C111.483 31.3252 110.754 31.9923 110.042 32.6784C109.565 32.221 109.08 31.7737 108.588 31.3367C100.638 24.3118 92.6678 21.3539 87.8852 24.1059C83.3054 26.7512 81.9471 34.6071 83.8678 44.4336C84.0642 45.4068 84.281 46.375 84.5183 47.3381C83.3972 47.6582 82.3068 47.9975 81.2661 48.3596C71.9496 51.5995 66 56.669 66 61.9291C66 67.3608 72.3896 72.8114 82.0925 76.1085C82.8781 76.3779 83.6714 76.6269 84.4723 76.8556C84.2122 77.8899 83.9826 78.9317 83.7837 79.9812C81.9395 89.6361 83.3781 97.3052 87.9541 99.9353C92.6755 102.649 100.603 99.859 108.328 93.1353C108.94 92.6067 109.552 92.0451 110.165 91.4505C110.935 92.195 111.726 92.9167 112.537 93.6155C120.021 100.027 127.405 102.611 131.973 99.981C136.698 97.2557 138.233 89.0187 136.239 78.9978C136.086 78.2354 135.91 77.4553 135.711 76.6574C136.267 76.4948 136.813 76.3258 137.349 76.1505C147.438 72.8191 154 67.4332 154 61.9291C154 56.6462 147.859 51.5423 138.351 48.2834ZM114.706 33.5055C121.203 27.8719 127.275 25.6535 130.049 27.2391C132.995 28.9315 134.135 35.7582 132.283 44.7118C132.163 45.2963 132.032 45.8769 131.889 46.4538C128.011 45.5781 124.08 44.9593 120.12 44.6013C117.851 41.3545 115.365 38.2638 112.678 35.3504C113.336 34.7202 114.01 34.1052 114.698 33.5055H114.706ZM91.9791 66.4155C92.7775 67.9503 93.6103 69.4623 94.4776 70.9513C95.3627 72.476 96.2835 73.9791 97.24 75.4605C94.5157 75.1671 91.8084 74.7346 89.1287 74.1646C89.9092 71.6603 90.8657 69.0569 91.983 66.4193L91.9791 66.4155ZM91.9791 57.6105C90.8849 55.0262 89.9513 52.4838 89.1861 50.0253C91.6922 49.465 94.3704 49.0076 97.1597 48.6607C96.2261 50.1091 95.327 51.583 94.4623 53.0822C93.595 54.5713 92.766 56.0808 91.9753 57.6105H91.9791ZM93.9763 62.0168C95.1344 59.6154 96.3842 57.2598 97.7259 54.95C99.0574 52.6375 100.478 50.3823 101.988 48.1842C104.605 47.986 107.287 47.8793 110 47.8793C112.724 47.8793 115.41 47.986 118.027 48.1842C119.519 50.3823 120.932 52.6312 122.266 54.9309C123.608 57.2332 124.873 59.5773 126.062 61.9634C124.889 64.3724 123.629 66.7382 122.282 69.0608C120.948 71.3681 119.54 73.6297 118.058 75.8455C115.448 76.0361 112.751 76.1276 110 76.1276C107.261 76.1276 104.598 76.0437 102.034 75.876C100.514 73.6653 99.0803 71.3999 97.7336 69.0798C96.3919 66.7674 95.1395 64.4118 93.9763 62.013V62.0168ZM125.542 70.9361C126.424 69.4038 127.274 67.8537 128.09 66.2859C129.208 68.8048 130.194 71.3799 131.043 74.0007C128.334 74.6064 125.595 75.0708 122.837 75.3919C123.765 73.9232 124.665 72.4366 125.538 70.9323L125.542 70.9361ZM128.051 57.6143C127.24 56.0795 126.399 54.5599 125.526 53.0556C124.664 51.5766 123.771 50.1155 122.848 48.6721C125.653 49.0266 128.342 49.4955 130.871 50.071C130.059 52.6324 129.118 55.1512 128.051 57.6181V57.6143ZM110.038 38.0376C111.869 40.0254 113.598 42.1042 115.219 44.2659C111.755 44.1007 108.288 44.1007 104.819 44.2659C106.53 42.017 108.282 39.9282 110.042 38.0376H110.038ZM89.7753 27.3459C92.7214 25.6497 99.2257 28.0701 106.09 34.1421C106.53 34.5309 106.97 34.9349 107.41 35.3542C104.708 38.268 102.202 41.3572 99.9106 44.6013C95.9625 44.9544 92.0415 45.5617 88.1722 46.4194C87.9477 45.525 87.7462 44.6229 87.5677 43.7132V43.7208C85.911 35.297 87.009 28.9468 89.7753 27.3535V27.3459ZM85.4748 73.2498C84.7478 73.0414 84.026 72.8165 83.3092 72.5751C79.5803 71.4065 76.0992 69.564 73.04 67.1397C72.1646 66.5401 71.4219 65.768 70.8579 64.8712C70.2939 63.9743 69.9206 62.9717 69.761 61.9253C69.761 58.7349 74.536 54.6641 82.5019 51.9006C83.5043 51.55 84.5144 51.2323 85.5322 50.9477C86.7142 54.7275 88.1457 58.4252 89.8174 62.0168C88.1245 65.6606 86.6751 69.4118 85.4786 73.246L85.4748 73.2498ZM105.853 90.3261C102.974 92.9564 99.6344 95.0366 96.0003 96.4629C95.0431 96.9201 94.0019 97.1769 92.9411 97.2176C91.8803 97.2582 90.8224 97.0818 89.8327 96.6992C87.0588 95.0983 85.9033 88.9462 87.4758 80.6902C87.6646 79.7118 87.8788 78.7411 88.1186 77.778C92.0289 78.6139 95.9916 79.1844 99.9795 79.4857C102.29 82.7473 104.813 85.8541 107.532 88.7861C106.986 89.3122 106.428 89.8242 105.856 90.3223L105.853 90.3261ZM110.145 86.0875C108.362 84.174 106.587 82.0547 104.85 79.7754C106.534 79.8414 108.25 79.8745 110 79.8745C111.793 79.8745 113.563 79.8363 115.311 79.7601C113.698 81.9557 111.974 84.0676 110.145 86.0875ZM132.976 91.298C132.895 92.3534 132.597 93.3809 132.102 94.3171C131.606 95.2534 130.923 96.0784 130.095 96.7411C127.321 98.342 121.39 96.2608 114.993 90.7796C114.261 90.1545 113.524 89.4862 112.782 88.7747C115.449 85.8334 117.913 82.716 120.158 79.4437C124.168 79.1068 128.151 78.4955 132.077 77.6141C132.255 78.3358 132.413 79.0422 132.551 79.7334C133.402 83.5312 133.545 87.4526 132.972 91.3018L132.976 91.298ZM136.167 72.5942C135.681 72.7543 135.187 72.9067 134.682 73.0516C133.452 69.254 131.964 65.5443 130.229 61.9482C131.9 58.401 133.332 54.7463 134.514 51.0087C135.409 51.2641 136.285 51.5423 137.127 51.8282C145.277 54.6183 150.243 58.7502 150.243 61.9291C150.243 65.3215 144.875 69.7202 136.163 72.5942H136.167Z" fill="#61DAFB"/>
<path d="M110 54.0992C111.555 54.0992 113.074 54.5585 114.367 55.4192C115.659 56.2798 116.667 57.503 117.261 58.934C117.856 60.3651 118.011 61.9396 117.707 63.4585C117.403 64.9775 116.654 66.3725 115.554 67.4671C114.454 68.5617 113.053 69.3068 111.528 69.608C110.003 69.9092 108.423 69.7531 106.987 69.1594C105.551 68.5656 104.325 67.561 103.462 66.2725C102.599 64.9839 102.14 63.4695 102.141 61.9207C102.144 59.8463 102.974 57.8578 104.447 56.3921C105.92 54.9263 107.918 54.103 110 54.103" fill="#61DAFB"/>
</g>
<path d="M194.932 66.472V88H187.984V36.412H202.564C205.828 36.412 208.648 36.748 211.024 37.42C213.4 38.068 215.356 39.016 216.892 40.264C218.452 41.512 219.604 43.024 220.348 44.8C221.092 46.552 221.464 48.52 221.464 50.704C221.464 52.528 221.176 54.232 220.6 55.816C220.024 57.4 219.184 58.828 218.08 60.1C217 61.348 215.668 62.416 214.084 63.304C212.524 64.192 210.748 64.864 208.756 65.32C209.62 65.824 210.388 66.556 211.06 67.516L226.108 88H219.916C218.644 88 217.708 87.508 217.108 86.524L203.716 68.092C203.308 67.516 202.864 67.108 202.384 66.868C201.904 66.604 201.184 66.472 200.224 66.472H194.932ZM194.932 61.396H202.24C204.28 61.396 206.068 61.156 207.604 60.676C209.164 60.172 210.46 59.476 211.492 58.588C212.548 57.676 213.34 56.596 213.868 55.348C214.396 54.1 214.66 52.72 214.66 51.208C214.66 48.136 213.64 45.82 211.6 44.26C209.584 42.7 206.572 41.92 202.564 41.92H194.932V61.396ZM247.028 50.956C249.212 50.956 251.228 51.328 253.076 52.072C254.924 52.792 256.52 53.848 257.864 55.24C259.208 56.608 260.252 58.312 260.996 60.352C261.764 62.368 262.148 64.672 262.148 67.264C262.148 68.272 262.04 68.944 261.824 69.28C261.608 69.616 261.2 69.784 260.6 69.784H236.336C236.384 72.088 236.696 74.092 237.272 75.796C237.848 77.5 238.64 78.928 239.648 80.08C240.656 81.208 241.856 82.06 243.248 82.636C244.64 83.188 246.2 83.464 247.928 83.464C249.536 83.464 250.916 83.284 252.068 82.924C253.244 82.54 254.252 82.132 255.092 81.7C255.932 81.268 256.628 80.872 257.18 80.512C257.756 80.128 258.248 79.936 258.656 79.936C259.184 79.936 259.592 80.14 259.88 80.548L261.68 82.888C260.888 83.848 259.94 84.688 258.836 85.408C257.732 86.104 256.544 86.68 255.272 87.136C254.024 87.592 252.728 87.928 251.384 88.144C250.04 88.384 248.708 88.504 247.388 88.504C244.868 88.504 242.54 88.084 240.404 87.244C238.292 86.38 236.456 85.132 234.896 83.5C233.36 81.844 232.16 79.804 231.296 77.38C230.432 74.956 230 72.172 230 69.028C230 66.484 230.384 64.108 231.152 61.9C231.944 59.692 233.072 57.784 234.536 56.176C236 54.544 237.788 53.272 239.9 52.36C242.012 51.424 244.388 50.956 247.028 50.956ZM247.172 55.672C244.076 55.672 241.64 56.572 239.864 58.372C238.088 60.148 236.984 62.62 236.552 65.788H256.388C256.388 64.3 256.184 62.944 255.776 61.72C255.368 60.472 254.768 59.404 253.976 58.516C253.184 57.604 252.212 56.908 251.06 56.428C249.932 55.924 248.636 55.672 247.172 55.672ZM297.134 88H294.29C293.666 88 293.162 87.904 292.778 87.712C292.394 87.52 292.142 87.112 292.022 86.488L291.302 83.104C290.342 83.968 289.406 84.748 288.494 85.444C287.582 86.116 286.622 86.692 285.614 87.172C284.606 87.628 283.526 87.976 282.374 88.216C281.246 88.456 279.986 88.576 278.594 88.576C277.178 88.576 275.846 88.384 274.598 88C273.374 87.592 272.306 86.992 271.394 86.2C270.482 85.408 269.75 84.412 269.198 83.212C268.67 81.988 268.406 80.548 268.406 78.892C268.406 77.452 268.802 76.072 269.594 74.752C270.386 73.408 271.658 72.22 273.41 71.188C275.186 70.156 277.502 69.316 280.358 68.668C283.214 67.996 286.706 67.612 290.834 67.516V64.672C290.834 61.84 290.222 59.704 288.998 58.264C287.798 56.8 286.01 56.068 283.634 56.068C282.074 56.068 280.754 56.272 279.674 56.68C278.618 57.064 277.694 57.508 276.902 58.012C276.134 58.492 275.462 58.936 274.886 59.344C274.334 59.728 273.782 59.92 273.23 59.92C272.798 59.92 272.414 59.812 272.078 59.596C271.766 59.356 271.514 59.068 271.322 58.732L270.17 56.68C272.186 54.736 274.358 53.284 276.686 52.324C279.014 51.364 281.594 50.884 284.426 50.884C286.466 50.884 288.278 51.22 289.862 51.892C291.446 52.564 292.778 53.5 293.858 54.7C294.938 55.9 295.754 57.352 296.306 59.056C296.858 60.76 297.134 62.632 297.134 64.672V88ZM280.502 84.076C281.63 84.076 282.662 83.968 283.598 83.752C284.534 83.512 285.41 83.188 286.226 82.78C287.066 82.348 287.858 81.832 288.602 81.232C289.37 80.632 290.114 79.948 290.834 79.18V71.584C287.882 71.68 285.374 71.92 283.31 72.304C281.246 72.664 279.566 73.144 278.27 73.744C276.974 74.344 276.026 75.052 275.426 75.868C274.85 76.684 274.562 77.596 274.562 78.604C274.562 79.564 274.718 80.392 275.03 81.088C275.342 81.784 275.762 82.36 276.29 82.816C276.818 83.248 277.442 83.572 278.162 83.788C278.882 83.98 279.662 84.076 280.502 84.076ZM331.718 58.012C331.526 58.276 331.334 58.48 331.142 58.624C330.95 58.768 330.674 58.84 330.314 58.84C329.954 58.84 329.558 58.696 329.126 58.408C328.718 58.096 328.19 57.76 327.542 57.4C326.894 57.04 326.102 56.716 325.166 56.428C324.254 56.116 323.126 55.96 321.782 55.96C320.006 55.96 318.434 56.284 317.066 56.932C315.698 57.556 314.546 58.468 313.61 59.668C312.698 60.868 312.002 62.32 311.522 64.024C311.066 65.728 310.838 67.636 310.838 69.748C310.838 71.956 311.09 73.924 311.594 75.652C312.098 77.356 312.806 78.796 313.718 79.972C314.63 81.124 315.734 82.012 317.03 82.636C318.35 83.236 319.826 83.536 321.458 83.536C323.018 83.536 324.302 83.356 325.31 82.996C326.318 82.612 327.158 82.192 327.83 81.736C328.502 81.28 329.054 80.872 329.486 80.512C329.918 80.128 330.35 79.936 330.782 79.936C331.334 79.936 331.742 80.14 332.006 80.548L333.806 82.888C332.222 84.832 330.242 86.26 327.866 87.172C325.49 88.06 322.982 88.504 320.342 88.504C318.062 88.504 315.938 88.084 313.97 87.244C312.026 86.404 310.334 85.192 308.894 83.608C307.454 82 306.314 80.032 305.474 77.704C304.658 75.376 304.25 72.724 304.25 69.748C304.25 67.036 304.622 64.528 305.366 62.224C306.134 59.92 307.238 57.94 308.678 56.284C310.142 54.604 311.942 53.296 314.078 52.36C316.214 51.424 318.662 50.956 321.422 50.956C323.966 50.956 326.222 51.376 328.19 52.216C330.158 53.032 331.898 54.196 333.41 55.708L331.718 58.012ZM351.503 88.576C348.623 88.576 346.403 87.772 344.843 86.164C343.307 84.556 342.539 82.24 342.539 79.216V56.896H338.147C337.763 56.896 337.439 56.788 337.175 56.572C336.911 56.332 336.779 55.972 336.779 55.492V52.936L342.755 52.18L344.231 40.912C344.279 40.552 344.435 40.264 344.699 40.048C344.963 39.808 345.299 39.688 345.707 39.688H348.947V52.252H359.387V56.896H348.947V78.784C348.947 80.32 349.319 81.46 350.063 82.204C350.807 82.948 351.767 83.32 352.943 83.32C353.615 83.32 354.191 83.236 354.671 83.068C355.175 82.876 355.607 82.672 355.967 82.456C356.327 82.24 356.627 82.048 356.867 81.88C357.131 81.688 357.359 81.592 357.551 81.592C357.887 81.592 358.187 81.796 358.451 82.204L360.323 85.264C359.219 86.296 357.887 87.112 356.327 87.712C354.767 88.288 353.159 88.576 351.503 88.576Z" fill="#00DDFF"/>
<defs>
<linearGradient id="paint0_linear_28_8" x1="222.5" y1="0" x2="222.5" y2="125" gradientUnits="userSpaceOnUse">
<stop stop-color="#22272E"/>
<stop offset="0.594439" stop-color="#272D35"/>
<stop offset="1" stop-color="#363E49"/>
</linearGradient>
<clipPath id="clip0_28_8">
<rect width="88" height="78" fill="white" transform="translate(66 23)"/>
</clipPath>
</defs>
</svg>
